<svg width="137" height="126" viewBox="0 0 137 126" fill="none" xmlns="http://www.w3.org/2000/svg">
<path d="M78.5471 11.1185L78.2643 10.8204L78.2643 10.8205L78.5471 11.1185ZM134.156 26.1984L133.762 26.315V26.3151L134.156 26.1984ZM86.6125 113.947L86.8591 114.275L86.8591 114.275L86.6125 113.947ZM72.2198 123.916L72.4462 124.258L72.4464 124.258L72.2198 123.916ZM72.2141 123.919L71.9877 123.577H71.9877L72.2141 123.919ZM64.7846 123.919L64.557 124.261L64.558 124.262L64.7846 123.919ZM64.6846 123.853L64.4577 124.195L64.4577 124.195L64.6846 123.853ZM50.3847 113.947L50.138 114.275L50.1381 114.275L50.3847 113.947ZM2.84389 26.1984L2.45003 26.0818L2.45002 26.0818L2.84389 26.1984ZM58.4531 11.1185L58.1704 11.4165L58.4531 11.1185ZM68.2796 26.6358L68.669 26.505L68.6659 26.4958L68.6624 26.4867L68.2796 26.6358ZM68.5016 27.2381L68.1205 27.3915L68.5058 28.3487L68.8838 27.3886L68.5016 27.2381ZM68.6756 26.7591L68.2921 26.612L68.2889 26.6203L68.286 26.6289L68.6756 26.7591ZM83.8693 109.775L83.6227 109.446L83.6226 109.446L83.8693 109.775ZM69.7079 119.583L69.9328 119.926L69.9338 119.926L69.7079 119.583ZM129.607 27.7362L129.213 27.8528L129.213 27.8529L129.607 27.7362ZM81.7183 14.9296L82.0011 15.2276V15.2276L81.7183 14.9296ZM73.1294 28.5862L73.5111 28.738L73.5113 28.7375L73.1294 28.5862ZM73.1279 28.5901L72.7462 28.4383L72.7417 28.4495L72.738 28.4608L73.1279 28.5901ZM63.8294 28.4668L64.2191 28.3368L64.1255 28.056H63.8294V28.4668ZM63.8152 28.4325L63.435 28.5879L63.435 28.5879L63.8152 28.4325ZM55.2854 14.928L55.5682 14.63L55.5682 14.63L55.2854 14.928ZM7.39666 27.7346L7.79053 27.8513L7.79053 27.8513L7.39666 27.7346ZM53.133 109.775L53.3796 109.446L53.3796 109.446L53.133 109.775ZM67.2959 119.583L67.5219 119.24L67.5219 119.239L67.2959 119.583ZM103.261 0.589221C94.224 0.589221 85.1152 4.32118 78.2643 10.8204L78.8298 11.4165C85.5358 5.05458 94.445 1.41078 103.261 1.41078V0.589221ZM134.55 26.0818C130.045 10.8642 117.487 0.589221 103.261 0.589221V1.41078C117.067 1.41078 129.343 11.3888 133.762 26.315L134.55 26.0818ZM86.8591 114.275C105.725 100.111 119.632 84.7983 127.832 69.6639C136.033 54.5282 138.538 39.5474 134.55 26.0818L133.762 26.3151C137.672 39.5168 135.238 54.2707 127.11 69.2725C118.98 84.2755 105.166 99.5034 86.3659 113.618L86.8591 114.275ZM72.4464 124.258C72.8975 123.96 81.7707 118.094 86.8591 114.275L86.366 113.618C81.3011 117.419 72.4499 123.271 71.9933 123.573L72.4464 124.258ZM72.4405 124.262L72.4462 124.258L71.9934 123.573L71.9877 123.577L72.4405 124.262ZM68.4986 125.379C69.9387 125.379 71.3395 124.989 72.4405 124.262L71.9877 123.577C71.0367 124.205 69.7975 124.558 68.4986 124.558V125.379ZM64.558 124.262C65.6576 124.989 67.0586 125.379 68.4986 125.379V124.558C67.1997 124.558 65.9606 124.205 65.0112 123.577L64.558 124.262ZM64.4577 124.195C64.5074 124.228 64.5406 124.25 64.557 124.261L65.0122 123.577C64.995 123.566 64.9609 123.543 64.9115 123.511L64.4577 124.195ZM50.1381 114.275C55.0214 117.941 63.3965 123.492 64.4577 124.195L64.9115 123.511C63.8448 122.804 55.4915 117.267 50.6313 113.618L50.1381 114.275ZM2.45002 26.0818C-1.53778 39.5474 0.966316 54.5281 9.16669 69.6638C17.3664 84.7983 31.2719 100.111 50.138 114.275L50.6313 113.618C31.8312 99.5034 18.0175 84.2755 9.88904 69.2725C1.76123 54.2707 -0.671897 39.5168 3.23776 26.3151L2.45002 26.0818ZM33.7408 0.589221C19.5145 0.589221 6.95714 10.8642 2.45003 26.0818L3.23776 26.3151C7.6586 11.3888 19.9351 1.41078 33.7408 1.41078V0.589221ZM58.7359 10.8204C51.885 4.3212 42.7792 0.589221 33.7408 0.589221V1.41078C42.5582 1.41078 51.4643 5.05456 58.1704 11.4165L58.7359 10.8204ZM68.6624 26.4867C68.5807 26.2771 67.6036 23.7909 65.8987 20.6464C64.1965 17.5069 61.7546 13.6842 58.7359 10.8204L58.1704 11.4165C61.0977 14.1935 63.491 17.9292 65.1765 21.038C66.8594 24.1419 67.8225 26.5939 67.8968 26.7849L68.6624 26.4867ZM68.8827 27.0847C68.8163 26.9199 68.7442 26.7288 68.669 26.505L67.8902 26.7665C67.971 27.0073 68.0489 27.2135 68.1205 27.3915L68.8827 27.0847ZM68.286 26.6289C68.2284 26.8011 68.1724 26.9529 68.1194 27.0876L68.8838 27.3886C68.9418 27.2414 69.0028 27.076 69.0652 26.8894L68.286 26.6289ZM78.2643 10.8205C75.2463 13.6843 72.8044 17.507 71.0963 20.6621C69.3857 23.8218 68.3968 26.339 68.2921 26.612L69.0591 26.9063C69.1554 26.6554 70.13 24.1726 71.8188 21.0532C73.51 17.9291 75.9033 14.1934 78.8298 11.4164L78.2643 10.8205ZM83.6226 109.446C78.6531 113.18 69.5742 119.179 69.4819 119.239L69.9338 119.926C70.0216 119.868 79.1226 113.855 84.1161 110.103L83.6226 109.446ZM129.213 27.8529C132.792 39.934 130.366 53.5951 122.547 67.6195C114.728 81.6443 101.529 96.0041 83.6227 109.446L84.1159 110.103C102.085 96.6138 115.374 82.1722 123.265 68.0196C131.156 53.8667 133.661 39.9744 130.001 27.6196L129.213 27.8529ZM103.261 6.50834C114.975 6.50834 125.425 15.0533 129.213 27.8528L130.001 27.6197C126.128 14.5335 115.4 5.68678 103.261 5.68678V6.50834ZM82.0011 15.2276C87.8448 9.68257 95.599 6.50834 103.261 6.50834V5.68678C95.3776 5.68678 87.4238 8.94952 81.4356 14.6316L82.0011 15.2276ZM73.5113 28.7375C73.553 28.6324 74.4205 26.4424 75.9095 23.6799C77.4018 20.9114 79.5021 17.5987 82.0011 15.2276L81.4356 14.6316C78.8425 17.092 76.6931 20.4947 75.1863 23.2901C73.6763 26.0916 72.7954 28.314 72.7475 28.4349L73.5113 28.7375ZM73.5096 28.7419L73.5111 28.738L72.7477 28.4344L72.7462 28.4383L73.5096 28.7419ZM68.5019 33.5731C69.1565 33.5731 70.0765 33.3998 71.007 32.6882C71.9354 31.9783 72.8418 30.7574 73.5178 28.7194L72.738 28.4608C72.0999 30.3846 71.2739 31.4499 70.508 32.0356C69.7443 32.6196 69.0082 32.7516 68.5019 32.7516V33.5731ZM63.4397 28.5967C64.1389 30.6938 65.0557 31.945 65.9888 32.6707C66.9254 33.3992 67.8461 33.5731 68.5019 33.5731V32.7516C67.9967 32.7516 67.2621 32.6203 66.4932 32.0223C65.7209 31.4215 64.8819 30.3249 64.2191 28.3368L63.4397 28.5967ZM63.435 28.5879C63.4395 28.599 63.4433 28.6083 63.446 28.6148C63.4472 28.6178 63.4488 28.6216 63.4504 28.6252C63.4509 28.6266 63.4527 28.6307 63.4549 28.6355C63.4556 28.637 63.4587 28.6441 63.4631 28.6527C63.4646 28.6557 63.471 28.6682 63.4804 28.6834C63.4841 28.6893 63.4965 28.7092 63.5158 28.7321C63.5249 28.7428 63.5462 28.7671 63.5787 28.7921C63.599 28.8078 63.6901 28.8775 63.8294 28.8775V28.056C63.9044 28.056 63.9632 28.0763 63.9994 28.0928C64.0362 28.1095 64.0634 28.1285 64.0802 28.1414C64.1126 28.1664 64.1339 28.1907 64.143 28.2014C64.1623 28.2243 64.1747 28.2442 64.1784 28.2501C64.1878 28.2652 64.1941 28.2777 64.1955 28.2805C64.1998 28.289 64.2029 28.2958 64.2034 28.297C64.2045 28.2994 64.2053 28.3013 64.2057 28.3021C64.2061 28.303 64.2064 28.3037 64.2065 28.304C64.2068 28.3047 64.2066 28.3042 64.2055 28.3015C64.2034 28.2965 64.2002 28.2886 64.1955 28.277L63.435 28.5879ZM55.0027 15.2259C57.4149 17.5152 59.4621 20.6984 60.9421 23.4033C62.419 26.1023 63.3157 28.296 63.435 28.5879L64.1955 28.277C64.0709 27.9722 63.1608 25.7466 61.6628 23.009C60.1681 20.2772 58.0723 17.0065 55.5682 14.63L55.0027 15.2259ZM33.7425 6.50673C41.4077 6.50673 49.1574 9.68093 55.0027 15.226L55.5682 14.63C49.5785 8.94795 41.6293 5.68518 33.7425 5.68518V6.50673ZM7.79053 27.8513C11.5806 15.0517 22.0301 6.50673 33.7425 6.50673V5.68518C21.6051 5.68518 10.8777 14.5319 7.00279 27.618L7.79053 27.8513ZM53.3796 109.446C35.4727 96.0033 22.2743 81.6435 14.4557 67.6187C6.63739 53.5943 4.21232 39.9332 7.79053 27.8513L7.00279 27.618C3.34353 39.9736 5.84818 53.8658 13.7382 68.0188C21.6279 82.1714 34.9164 96.613 52.8863 110.103L53.3796 109.446ZM67.5219 119.239C67.4296 119.179 58.3507 113.18 53.3796 109.446L52.8863 110.103C57.8812 113.855 66.9822 119.868 67.0699 119.926L67.5219 119.239ZM68.5019 119.46C67.9988 119.46 67.6527 119.326 67.5219 119.24L67.0699 119.926C67.3621 120.118 67.874 120.282 68.5019 120.282V119.46ZM69.483 119.239C69.3496 119.326 69.0043 119.46 68.5019 119.46V120.282C69.1305 120.282 69.6401 120.118 69.9328 119.926L69.483 119.239Z" fill="#E10505"/>
<path d="M74.8482 36.52L74.581 36.2081L74.5809 36.2081L74.8482 36.52ZM116.022 46.6031L115.632 46.7311L115.632 46.7311L116.022 46.6031ZM80.82 105.275L81.0505 105.615L81.0505 105.615L80.82 105.275ZM70.1635 111.941L70.374 112.294L70.3741 112.294L70.1635 111.941ZM70.1592 111.944L70.3696 112.296L70.3696 112.296L70.1592 111.944ZM64.6583 111.944L64.4468 112.296L64.4476 112.296L64.6583 111.944ZM64.5843 111.899L64.3733 112.252L64.3734 112.252L64.5843 111.899ZM53.9963 105.275L53.7658 105.615L53.7659 105.615L53.9963 105.275ZM18.7964 46.6031L18.4061 46.4751L18.4061 46.4751L18.7964 46.6031ZM59.9704 36.52L59.7031 36.832V36.832L59.9704 36.52ZM67.246 46.8956L67.6311 46.7524L67.6274 46.7425L67.6232 46.7329L67.246 46.8956ZM67.4104 47.2983L67.0352 47.4656L67.4146 48.3167L67.787 47.4625L67.4104 47.2983ZM67.5392 46.9781L67.1612 46.8174L67.1574 46.8263L67.154 46.8354L67.5392 46.9781ZM78.7889 102.486L78.5584 102.146L78.5583 102.146L78.7889 102.486ZM68.3035 109.044L68.5125 109.398L68.5135 109.397L68.3035 109.044ZM112.654 47.6316L112.264 47.7595L112.264 47.7596L112.654 47.6316ZM77.1962 39.0685L77.4635 39.3804L77.4635 39.3804L77.1962 39.0685ZM70.8369 48.1999L71.2129 48.3652L71.213 48.365L70.8369 48.1999ZM70.8357 48.2025L70.4597 48.0373L70.4545 48.0489L70.4501 48.0609L70.8357 48.2025ZM63.951 48.12L64.3364 47.9778L64.2372 47.7093H63.951V48.12ZM63.9405 48.0971L64.3147 47.9277L64.3147 47.9277L63.9405 48.0971ZM57.6249 39.0674L57.8922 38.7555L57.8922 38.7555L57.6249 39.0674ZM22.1673 47.6305L22.5576 47.7585L22.5576 47.7585L22.1673 47.6305ZM56.0312 102.486L56.2618 102.146L56.2617 102.146L56.0312 102.486ZM66.5176 109.044L66.7277 108.691L66.7276 108.691L66.5176 109.044ZM93.1468 29.3436C86.4395 29.3436 79.6743 31.8445 74.581 36.2081L75.1155 36.832C80.0599 32.596 86.6355 30.1652 93.1468 30.1652V29.3436ZM116.413 46.4752C113.055 36.2337 103.707 29.3436 93.1468 29.3436V30.1652C103.342 30.1652 112.381 36.817 115.632 46.7311L116.413 46.4752ZM81.0505 105.615C95.027 96.1393 105.339 85.8887 111.424 75.7465C117.511 65.6022 119.384 55.5364 116.412 46.4751L115.632 46.7311C118.508 55.5009 116.724 65.3169 110.72 75.3238C104.714 85.3328 94.5018 95.5028 80.5895 104.935L81.0505 105.615ZM70.3741 112.294C70.7087 112.094 77.2803 108.17 81.0505 105.615L80.5896 104.935C76.8428 107.475 70.293 111.385 69.953 111.588L70.3741 112.294ZM70.3696 112.296L70.374 112.294L69.9531 111.588L69.9487 111.591L70.3696 112.296ZM67.4082 113.056C68.4849 113.056 69.5372 112.793 70.3696 112.296L69.9488 111.591C69.2618 112.001 68.3595 112.234 67.4082 112.234V113.056ZM64.4476 112.296C65.2791 112.793 66.3316 113.056 67.4082 113.056V112.234C66.4568 112.234 65.5546 112 64.8689 111.591L64.4476 112.296ZM64.3734 112.252C64.4102 112.274 64.4347 112.288 64.4468 112.296L64.8698 111.591C64.857 111.584 64.8317 111.569 64.7953 111.547L64.3734 112.252ZM53.7659 105.615C57.3847 108.069 63.5888 111.782 64.3733 112.252L64.7953 111.547C64.0051 111.074 57.8226 107.373 54.2268 104.935L53.7659 105.615ZM18.4061 46.4751C15.4346 55.5364 17.307 65.6021 23.3931 75.7465C29.4778 85.8887 39.7894 96.1393 53.7658 105.615L54.2269 104.935C40.3146 95.5028 30.1024 85.3328 24.0976 75.3238C18.094 65.317 16.3108 55.5009 19.1867 46.7311L18.4061 46.4751ZM41.6729 29.3436C31.1125 29.3436 21.7649 36.2338 18.4061 46.4751L19.1867 46.7311C22.4383 36.817 31.4781 30.1652 41.6729 30.1652V29.3436ZM60.2376 36.2081C55.1443 31.8445 48.3813 29.3436 41.6729 29.3436V30.1652C48.1853 30.1652 54.7587 32.596 59.7031 36.832L60.2376 36.2081ZM67.6232 46.7329C67.5081 46.466 64.7196 40.0478 60.2376 36.2081L59.7031 36.832C64.0261 40.5355 66.7529 46.7896 66.8688 47.0583L67.6232 46.7329ZM67.7856 47.1311C67.7376 47.0234 67.6854 46.8986 67.6311 46.7524L66.861 47.0387C66.9221 47.2031 66.981 47.344 67.0352 47.4656L67.7856 47.1311ZM67.154 46.8354C67.1124 46.9477 67.072 47.0465 67.0338 47.1342L67.787 47.4625C67.8309 47.3616 67.8772 47.2484 67.9244 47.1207L67.154 46.8354ZM74.5809 36.2081C70.0999 40.048 67.3106 46.4657 67.1612 46.8174L67.9173 47.1387C68.0655 46.7898 70.7938 40.5354 75.1155 36.8319L74.5809 36.2081ZM78.5583 102.146C74.8818 104.64 68.1624 108.65 68.0935 108.691L68.5135 109.397C68.5779 109.359 75.3192 105.336 79.0195 102.826L78.5583 102.146ZM112.264 47.7596C114.894 55.7778 113.118 64.8623 107.343 74.2172C101.567 83.573 91.8091 93.163 78.5584 102.146L79.0194 102.826C92.3313 93.8015 102.186 84.1337 108.042 74.6488C113.898 65.1631 115.774 55.8242 113.044 47.5035L112.264 47.7596ZM93.1469 33.5738C101.792 33.5738 109.48 39.2669 112.264 47.7595L113.044 47.5036C110.155 38.688 102.163 32.7522 93.1469 32.7522V33.5738ZM77.4635 39.3804C81.7695 35.6906 87.4899 33.5738 93.1469 33.5738V32.7522C87.2935 32.7522 81.3835 34.9394 76.929 38.7566L77.4635 39.3804ZM71.213 48.365C71.2424 48.298 71.882 46.8397 72.9802 44.9997C74.0817 43.1543 75.628 40.9532 77.4635 39.3804L76.929 38.7566C74.9942 40.4144 73.3939 42.7036 72.2748 44.5786C71.1525 46.4589 70.4975 47.951 70.4607 48.0349L71.213 48.365ZM71.2118 48.3678L71.2129 48.3652L70.4608 48.0347L70.4597 48.0373L71.2118 48.3678ZM67.4106 51.6705C67.9057 51.6705 68.6048 51.5524 69.3141 51.0625C70.0242 50.5721 70.7117 49.7318 71.2213 48.3441L70.4501 48.0609C69.9869 49.3223 69.3916 50.0106 68.8472 50.3865C68.3021 50.763 67.775 50.8489 67.4106 50.8489V51.6705ZM63.5657 48.2623C64.0922 49.6885 64.7868 50.549 65.5005 51.0503C66.2146 51.5519 66.9145 51.6705 67.4106 51.6705V50.8489C67.0471 50.8489 66.5214 50.7634 65.9727 50.378C65.4237 49.9924 64.8183 49.2831 64.3364 47.9778L63.5657 48.2623ZM63.5663 48.2665C63.5696 48.2738 63.5725 48.2803 63.5746 48.2849C63.5756 48.2869 63.577 48.2902 63.5786 48.2934C63.5791 48.2945 63.581 48.2987 63.5835 48.3036C63.5843 48.3052 63.5879 48.3125 63.593 48.3215C63.5948 48.3246 63.602 48.3375 63.6127 48.353C63.6169 48.3592 63.6306 48.379 63.6517 48.4013C63.6617 48.412 63.6839 48.4347 63.7169 48.4576C63.7403 48.4738 63.8254 48.5308 63.951 48.5308V47.7093C64.0767 47.7093 64.1617 47.7662 64.1851 47.7825C64.2181 47.8054 64.2403 47.8281 64.2503 47.8387C64.2714 47.8611 64.285 47.8808 64.2893 47.8871C64.3 47.9025 64.3072 47.9153 64.3089 47.9184C64.3139 47.9273 64.3174 47.9344 64.3181 47.9357C64.3203 47.9402 64.3219 47.9436 64.322 47.9438C64.3226 47.9451 64.3228 47.9454 64.322 47.9436C64.3206 47.9406 64.3183 47.9356 64.3147 47.9277L63.5663 48.2665ZM57.3576 39.3793C59.1293 40.8977 60.6364 43.0126 61.7288 44.8155C62.818 46.6132 63.4792 48.074 63.5663 48.2665L64.3147 47.9277C64.2213 47.7214 63.5448 46.2273 62.4314 44.3898C61.3212 42.5574 59.7608 40.3569 57.8922 38.7555L57.3576 39.3793ZM41.6742 33.5727C47.3334 33.5727 53.0505 35.6895 57.3577 39.3794L57.8922 38.7555C53.4365 34.9384 47.5299 32.7512 41.6742 32.7512V33.5727ZM22.5576 47.7585C25.3423 39.2658 33.0299 33.5727 41.6742 33.5727V32.7512C32.6597 32.7512 24.6676 38.6869 21.777 47.5025L22.5576 47.7585ZM56.2617 102.146C43.0104 93.1624 33.2533 83.5724 27.4778 74.2167C21.7029 64.8618 19.9279 55.7772 22.5576 47.7585L21.777 47.5025C19.048 55.8237 20.923 65.1625 26.7788 74.6483C32.634 84.1331 42.4882 93.801 55.8007 102.826L56.2617 102.146ZM66.7276 108.691C66.6588 108.65 59.9393 104.64 56.2618 102.146L55.8006 102.826C59.502 105.336 66.2432 109.359 66.3077 109.397L66.7276 108.691ZM67.4106 108.826C67.047 108.826 66.8063 108.738 66.7277 108.691L66.3076 109.397C66.5422 109.537 66.9368 109.648 67.4106 109.648V108.826ZM68.0945 108.69C68.0138 108.738 67.7735 108.826 67.4106 108.826V109.648C67.8851 109.648 68.2778 109.536 68.5125 109.398L68.0945 108.69Z" fill="#E10505"/>
<path d="M71.7911 56.8321L71.5312 56.514L71.5312 56.514L71.7911 56.8321ZM96.0443 62.4952L95.6558 62.6287L95.6558 62.6288L96.0443 62.4952ZM75.3087 95.448L75.5317 95.793L75.5317 95.7929L75.3087 95.448ZM69.0315 99.1917L68.8283 98.8347L68.8282 98.8347L69.0315 99.1917ZM69.0291 99.1931L69.2321 99.5501L69.2324 99.55L69.0291 99.1931ZM65.7888 99.1931L65.5846 99.5495L65.5855 99.55L65.7888 99.1931ZM65.7453 99.1682L65.949 98.8115L65.9489 98.8115L65.7453 99.1682ZM59.5085 95.448L59.2855 95.7929L59.2855 95.7929L59.5085 95.448ZM38.7743 62.4952L38.3858 62.3616L38.3858 62.3616L38.7743 62.4952ZM63.0274 56.8321L62.7676 57.1502V57.1502L63.0274 56.8321ZM67.3131 62.6594L67.6958 62.5102L67.6919 62.5L67.6874 62.4901L67.3131 62.6594ZM67.4099 62.8856L67.0378 63.0596L67.4141 63.8645L67.7835 63.0564L67.4099 62.8856ZM67.4858 62.7057L67.1106 62.5386L67.1065 62.5477L67.1029 62.557L67.4858 62.7057ZM74.1123 93.8814L73.8893 93.5364L73.8892 93.5364L74.1123 93.8814ZM67.936 97.5645L68.1377 97.9224L68.1386 97.9218L67.936 97.5645ZM94.0602 63.0728L93.6717 63.2063L93.6718 63.2064L94.0602 63.0728ZM73.1742 58.2634L73.4341 58.5815L73.4341 58.5815L73.1742 58.2634ZM69.4283 63.392L69.8013 63.564L69.8014 63.5637L69.4283 63.392ZM69.4276 63.3934L69.0546 63.2214L69.049 63.2334L69.0443 63.2458L69.4276 63.3934ZM65.3722 63.3471L65.7553 63.1988L65.6537 62.9363H65.3722V63.3471ZM65.366 63.3342L65.7371 63.1581L65.7371 63.1581L65.366 63.3342ZM61.6459 58.2628L61.9058 57.9447L61.9057 57.9446L61.6459 58.2628ZM40.7599 63.0722L41.1483 63.2058L41.1483 63.2057L40.7599 63.0722ZM60.7071 93.8814L60.9302 93.5364L60.9301 93.5364L60.7071 93.8814ZM66.8841 97.5645L67.0868 97.2072L67.0867 97.2072L66.8841 97.5645ZM82.5697 52.6214C78.5839 52.6214 74.5625 54.0378 71.5312 56.514L72.051 57.1502C74.9324 54.7965 78.7692 53.443 82.5697 53.443V52.6214ZM96.4327 62.3616C94.4278 56.5309 88.8528 52.6214 82.5697 52.6214V53.443C88.5123 53.443 93.7682 57.1393 95.6558 62.6287L96.4327 62.3616ZM75.5317 95.7929C83.777 90.4627 89.8732 84.689 93.4762 78.9634C97.0807 73.2353 98.2074 67.5216 96.4327 62.3616L95.6558 62.6288C97.3255 67.4834 96.2982 72.9361 92.7808 78.5258C89.2618 84.118 83.2681 89.8134 75.0857 95.103L75.5317 95.7929ZM69.2347 99.5487C69.4294 99.4379 73.3058 97.2313 75.5317 95.793L75.0858 95.1029C72.8831 96.5262 69.0284 98.7208 68.8283 98.8347L69.2347 99.5487ZM69.2324 99.55L69.2348 99.5486L68.8282 98.8347L68.8257 98.8361L69.2324 99.55ZM67.4086 99.9979C68.0652 99.9979 68.7132 99.8453 69.2321 99.5501L68.826 98.836C68.45 99.0498 67.9466 99.1764 67.4086 99.1764V99.9979ZM65.5855 99.55C66.1039 99.8453 66.7521 99.9979 67.4086 99.9979V99.1764C66.8706 99.1764 66.3673 99.0498 65.9921 98.8361L65.5855 99.55ZM65.5417 99.525C65.5634 99.5374 65.5777 99.5455 65.5846 99.5495L65.993 98.8366C65.9853 98.8322 65.9703 98.8237 65.949 98.8115L65.5417 99.525ZM59.2855 95.7929C61.4219 97.1739 65.0811 99.2621 65.5417 99.525L65.9489 98.8115C65.4827 98.5454 61.845 96.4691 59.7315 95.103L59.2855 95.7929ZM38.3858 62.3616C36.6111 67.5216 37.7375 73.2353 41.3417 78.9634C44.9443 84.689 51.0403 90.4627 59.2855 95.7929L59.7315 95.103C51.5491 89.8134 45.5557 84.118 42.0371 78.5258C38.52 72.9362 37.493 67.4834 39.1627 62.6288L38.3858 62.3616ZM52.2495 52.6214C45.9664 52.6214 40.3914 56.5309 38.3858 62.3616L39.1627 62.6288C41.0509 57.1393 46.3069 53.443 52.2495 53.443V52.6214ZM63.2873 56.514C60.2561 54.0378 56.236 52.6214 52.2495 52.6214V53.443C56.0506 53.443 59.8862 54.7965 62.7676 57.1502L63.2873 56.514ZM67.6874 62.4901C67.6191 62.3393 65.9622 58.699 63.2873 56.514L62.7676 57.1502C65.2792 59.2018 66.871 62.6788 66.9388 62.8287L67.6874 62.4901ZM67.782 62.7117C67.7553 62.6544 67.7262 62.588 67.6958 62.5102L66.9304 62.8087C66.9681 62.9053 67.0044 62.9881 67.0378 63.0596L67.782 62.7117ZM67.1029 62.557C67.0798 62.6165 67.0574 62.6687 67.0363 62.7148L67.7835 63.0564C67.8108 62.9967 67.8395 62.9298 67.8687 62.8545L67.1029 62.557ZM71.5312 56.514C68.8568 58.6991 67.1995 62.339 67.1106 62.5386L67.861 62.8729C67.9474 62.679 69.5402 59.2017 72.051 57.1502L71.5312 56.514ZM73.8892 93.5364C71.7285 94.9342 67.7749 97.1837 67.7334 97.2072L68.1386 97.9218C68.1757 97.9008 72.1509 95.6393 74.3354 94.2263L73.8892 93.5364ZM93.6718 63.2064C95.1958 67.6362 94.1762 72.677 90.7928 77.9023C87.4088 83.1286 81.6826 88.4988 73.8893 93.5364L74.3353 94.2263C82.1885 89.15 88.0148 83.7042 91.4824 78.3488C94.9507 72.9924 96.0817 67.6859 94.4486 62.9391L93.6718 63.2064ZM82.5698 55.3574C87.5989 55.3574 92.0588 58.5144 93.6717 63.2063L94.4487 62.9392C92.7199 57.9101 87.9439 54.5358 82.5698 54.5358V55.3574ZM73.4341 58.5815C75.9395 56.5345 79.2726 55.3574 82.5698 55.3574V54.5358C79.0869 54.5358 75.5693 55.7761 72.9143 57.9453L73.4341 58.5815ZM69.8014 63.5637C69.817 63.5299 70.19 62.7186 70.8313 61.6942C71.4756 60.6649 72.3743 59.4474 73.4341 58.5815L72.9143 57.9453C71.7533 58.8938 70.7985 60.1982 70.1349 61.2583C69.4681 62.3234 69.0786 63.1691 69.0551 63.2203L69.8014 63.5637ZM69.8006 63.5655L69.8013 63.564L69.0553 63.2199L69.0546 63.2214L69.8006 63.5655ZM67.41 65.5212C67.7248 65.5212 68.1691 65.4497 68.6197 65.153C69.0723 64.8549 69.499 64.3509 69.8109 63.5411L69.0443 63.2458C68.7831 63.9238 68.4542 64.2783 68.1679 64.4668C67.8796 64.6567 67.6016 64.6997 67.41 64.6997V65.5212ZM64.9891 63.4954C65.3106 64.3256 65.7408 64.8409 66.1954 65.1454C66.6491 65.4492 67.0943 65.5212 67.41 65.5212V64.6997C67.2194 64.6997 66.9427 64.6571 66.6526 64.4628C66.3634 64.2691 66.0278 63.9027 65.7553 63.1988L64.9891 63.4954ZM64.9949 63.5104C64.9968 63.5143 64.9987 63.5183 65.0001 63.5213C65.0007 63.5225 65.002 63.5252 65.0034 63.5281C65.0039 63.529 65.0059 63.5331 65.0085 63.538C65.0093 63.5396 65.0132 63.547 65.0186 63.5562C65.0205 63.5594 65.0282 63.5724 65.0395 63.588C65.0441 63.5944 65.0584 63.614 65.0802 63.636C65.0907 63.6466 65.1133 63.6685 65.1465 63.6903C65.1711 63.7065 65.253 63.7579 65.3722 63.7579V62.9363C65.4914 62.9363 65.5733 62.9877 65.5979 63.0039C65.6311 63.0257 65.6537 63.0476 65.6642 63.0582C65.686 63.0802 65.7003 63.0998 65.7049 63.1062C65.7162 63.1218 65.7239 63.1348 65.7257 63.1379C65.7311 63.147 65.7349 63.1543 65.7357 63.1558C65.7382 63.1605 65.74 63.1641 65.7401 63.1645C65.741 63.1663 65.7415 63.1674 65.7411 63.1664C65.7404 63.1651 65.7393 63.1626 65.7371 63.1581L64.9949 63.5104ZM61.386 58.5809C63.4497 60.2673 64.8858 63.2806 64.9949 63.5104L65.7371 63.1581C65.6335 62.9398 64.1305 59.7626 61.9058 57.9447L61.386 58.5809ZM52.2503 55.3568C55.5487 55.3568 58.8799 56.5339 61.386 58.5809L61.9057 57.9446C59.2502 55.7755 55.7345 54.5352 52.2503 54.5352V55.3568ZM41.1483 63.2057C42.7619 58.5138 47.2219 55.3568 52.2503 55.3568V54.5352C46.8769 54.5352 42.1009 57.9095 40.3714 62.9386L41.1483 63.2057ZM60.9301 93.5364C53.1365 88.4985 47.4106 83.1283 44.0269 77.902C40.6439 72.6768 39.6246 67.6359 41.1483 63.2058L40.3715 62.9386C38.7387 67.6856 39.8694 72.9921 43.3373 78.3485C46.8046 83.7039 52.6306 89.1497 60.4841 94.2263L60.9301 93.5364ZM67.0867 97.2072C67.0452 97.1837 63.0916 94.9341 60.9302 93.5364L60.484 94.2263C62.6692 95.6394 66.6444 97.9008 66.6814 97.9218L67.0867 97.2072ZM67.41 97.262C67.3174 97.262 67.2399 97.2515 67.1814 97.238C67.1522 97.2313 67.129 97.2241 67.1119 97.2179C67.0943 97.2114 67.0865 97.2071 67.0868 97.2072L66.6813 97.9218C66.8501 98.0175 67.1114 98.0836 67.41 98.0836V97.262ZM67.7344 97.2066C67.7345 97.2065 67.7324 97.2077 67.7277 97.2099C67.723 97.212 67.7165 97.2147 67.708 97.2178C67.6908 97.2241 67.6676 97.2313 67.6384 97.238C67.58 97.2515 67.5027 97.262 67.41 97.262V98.0836C67.7094 98.0836 67.9693 98.0173 68.1377 97.9224L67.7344 97.2066Z" fill="#E10505"/>
<path d="M70.3358 69.9937L70.0795 69.6726L70.0794 69.6727L70.3358 69.9937ZM82.7443 72.8252L82.3569 72.9616L82.3569 72.9616L82.7443 72.8252ZM72.1355 89.3016L72.3548 89.6489L72.3549 89.6489L72.1355 89.3016ZM68.9239 91.1734L68.7242 90.8145L68.7241 90.8145L68.9239 91.1734ZM68.9226 91.1742L69.1222 91.5332L69.1224 91.5331L68.9226 91.1742ZM67.2648 91.1742L67.0641 91.5326L67.065 91.5331L67.2648 91.1742ZM67.2426 91.1618L67.4427 90.803L67.4427 90.803L67.2426 91.1618ZM64.0516 89.3016L63.8322 89.6489L63.8323 89.6489L64.0516 89.3016ZM53.4434 72.8252L53.0559 72.6888L53.0559 72.6889L53.4434 72.8252ZM65.852 69.9937L65.5957 70.3147L65.5957 70.3147L65.852 69.9937ZM68.0447 72.9073L68.4262 72.7551L68.4221 72.7448L68.4175 72.7348L68.0447 72.9073ZM68.0942 73.0205L67.7237 73.1977L68.0983 73.981L68.4663 73.1945L68.0942 73.0205ZM68.133 72.9305L67.7593 72.7601L67.7551 72.7694L67.7513 72.7788L68.133 72.9305ZM71.5234 88.5182L71.304 88.171L71.3039 88.171L71.5234 88.5182ZM68.3634 90.3598L68.5615 90.7197L68.5625 90.7191L68.3634 90.3598ZM81.7293 73.114L81.3418 73.2503L81.3418 73.2504L81.7293 73.114ZM71.0434 70.7093L71.2997 71.0303L71.2997 71.0303L71.0434 70.7093ZM69.1269 73.2736L68.7552 73.0986L68.7552 73.0986L69.1269 73.2736ZM69.1265 73.2743L68.7549 73.0994L68.7492 73.1113L68.7444 73.1237L69.1265 73.2743ZM67.0517 73.2511L67.4336 73.0998L67.3308 72.8403H67.0517V73.2511ZM67.0485 73.2447L67.418 73.0652L67.418 73.0652L67.0485 73.2447ZM65.1452 70.709L65.4015 70.388L65.4015 70.3879L65.1452 70.709ZM54.4593 73.1137L54.8468 73.25L54.8468 73.25L54.4593 73.1137ZM64.6649 88.5182L64.8843 88.171L64.8843 88.171L64.6649 88.5182ZM67.8252 90.3598L68.0244 90.0006L68.0243 90.0005L67.8252 90.3598ZM75.8504 67.683C73.7684 67.683 71.6671 68.4053 70.0795 69.6726L70.592 70.3147C72.0295 69.1672 73.9487 68.5045 75.8504 68.5045V67.683ZM83.1318 72.6889C82.075 69.6852 79.1422 67.683 75.8504 67.683V68.5045C78.8136 68.5045 81.4222 70.3052 82.3569 72.9616L83.1318 72.6889ZM72.3549 89.6489C76.5883 86.9743 79.7331 84.0684 81.5979 81.1723C83.4645 78.2736 84.0679 75.3486 83.1318 72.6889L82.3569 72.9616C83.183 75.3091 82.6844 77.9674 80.9072 80.7275C79.1282 83.4903 76.0874 86.319 71.9161 88.9543L72.3549 89.6489ZM69.1236 91.5324C69.2224 91.4775 71.2105 90.3716 72.3548 89.6489L71.9161 88.9543C70.795 89.6623 68.8284 90.7565 68.7242 90.8145L69.1236 91.5324ZM69.1224 91.5331L69.1237 91.5324L68.7241 90.8145L68.7228 90.8153L69.1224 91.5331ZM68.0936 91.782C68.4569 91.782 68.8225 91.6998 69.1222 91.5332L68.7231 90.8151C68.5649 90.903 68.3414 90.9604 68.0936 90.9604V91.782ZM67.065 91.5331C67.3646 91.6998 67.7302 91.782 68.0936 91.782V90.9604C67.8457 90.9604 67.6223 90.903 67.4646 90.8152L67.065 91.5331ZM67.0425 91.5205C67.0537 91.5268 67.0607 91.5307 67.0641 91.5326L67.4656 90.8158C67.4614 90.8135 67.4534 90.809 67.4427 90.803L67.0425 91.5205ZM63.8323 89.6489C64.9309 90.3429 66.8082 91.3898 67.0425 91.5205L67.4427 90.803C67.2027 90.6692 65.3468 89.6339 64.271 88.9543L63.8323 89.6489ZM53.0559 72.6889C52.1199 75.3486 52.7231 78.2735 54.5895 81.1723C56.4542 84.0684 59.5988 86.9743 63.8322 89.6489L64.271 88.9543C60.0997 86.319 57.0591 83.4903 55.2803 80.7276C53.5032 77.9675 53.0047 75.3092 53.8309 72.9616L53.0559 72.6889ZM60.3377 67.683C57.0459 67.683 54.1131 69.6852 53.0559 72.6888L53.8309 72.9616C54.7659 70.3052 57.3745 68.5045 60.3377 68.5045V67.683ZM66.1083 69.6726C64.5207 68.4053 62.4201 67.683 60.3377 67.683V68.5045C62.2397 68.5045 64.1582 69.1672 65.5957 70.3147L66.1083 69.6726ZM68.4175 72.7348C68.3821 72.6585 67.5177 70.7978 66.1083 69.6726L65.5957 70.3147C66.8399 71.3079 67.6376 73.0058 67.6719 73.0799L68.4175 72.7348ZM68.4648 72.8432C68.4528 72.8182 68.4398 72.7892 68.4262 72.7551L67.6632 73.0596C67.6844 73.1127 67.7048 73.1584 67.7237 73.1977L68.4648 72.8432ZM67.7513 72.7788C67.7411 72.8045 67.7313 72.8268 67.7221 72.8464L68.4663 73.1945C68.4819 73.1612 68.4982 73.1239 68.5148 73.0822L67.7513 72.7788ZM70.0794 69.6727C68.6703 70.7979 67.8057 72.6582 67.7593 72.7601L68.5068 73.1009C68.5501 73.0061 69.3483 71.3078 70.5921 70.3147L70.0794 69.6727ZM71.3039 88.171C70.7563 88.5172 69.9782 88.9709 69.33 89.3419C69.0069 89.5268 68.7177 89.6902 68.508 89.8081C68.4032 89.8671 68.3183 89.9146 68.259 89.9477C68.2294 89.9643 68.2062 89.9772 68.1901 89.9862C68.182 89.9907 68.1758 89.9941 68.1714 89.9966C68.1692 89.9978 68.1675 89.9988 68.1662 89.9994C68.1656 89.9998 68.1651 90 68.1648 90.0002C68.1644 90.0005 68.1643 90.0005 68.1643 90.0005L68.5625 90.7191C68.5804 90.7092 70.6195 89.5756 71.7429 88.8655L71.3039 88.171ZM81.3418 73.2504C82.0924 75.3825 81.6009 77.8336 79.8916 80.4135C78.1815 82.9944 75.277 85.6612 71.304 88.171L71.7428 88.8655C75.7749 86.3184 78.781 83.5771 80.5764 80.8672C82.3726 78.1563 82.9814 75.4337 82.1167 72.9775L81.3418 73.2504ZM75.8505 69.4617C78.3452 69.4617 80.5473 70.9917 81.3418 73.2503L82.1168 72.9776C81.2015 70.3757 78.6782 68.6401 75.8505 68.6401V69.4617ZM71.2997 71.0303C72.5449 70.036 74.2064 69.4617 75.8505 69.4617V68.6401C74.0256 68.6401 72.1821 69.2744 70.7871 70.3883L71.2997 71.0303ZM69.4985 73.4486C69.5044 73.4362 69.6909 73.0392 70.0124 72.5373C70.337 72.0306 70.7826 71.4431 71.2997 71.0303L70.7871 70.3882C70.1679 70.8826 69.6653 71.5561 69.3206 72.0942C68.9729 72.637 68.7694 73.0686 68.7552 73.0986L69.4985 73.4486ZM69.4982 73.4492L69.4986 73.4485L68.7552 73.0986L68.7549 73.0994L69.4982 73.4492ZM68.0943 74.5436C68.2837 74.5436 68.5503 74.5014 68.8199 74.3279C69.0921 74.1528 69.3356 73.8641 69.5087 73.4249L68.7444 73.1237C68.6243 73.4284 68.4811 73.569 68.3753 73.6371C68.2669 73.7069 68.1639 73.722 68.0943 73.722V74.5436ZM66.6698 73.4024C66.8473 73.8504 67.0917 74.1446 67.3649 74.3233C67.6364 74.501 67.904 74.5436 68.0943 74.5436V73.722C68.0255 73.722 67.9238 73.7073 67.8148 73.6359C67.7073 73.5656 67.56 73.4189 67.4336 73.0998L66.6698 73.4024ZM66.679 73.4242C66.6799 73.426 66.6811 73.4284 66.682 73.4303C66.6824 73.431 66.6835 73.4333 66.6848 73.436C66.6852 73.4368 66.6873 73.4408 66.6899 73.4457C66.6908 73.4473 66.6948 73.4548 66.7004 73.464C66.7023 73.4672 66.7102 73.4803 66.7218 73.4959C66.7266 73.5023 66.7411 73.5218 66.7633 73.5436C66.774 73.5542 66.7968 73.5756 66.8299 73.5969C66.855 73.613 66.9354 73.6619 67.0517 73.6619V72.8403C67.1679 72.8403 67.2484 72.8893 67.2734 72.9053C67.3066 72.9266 67.3294 72.948 67.3401 72.9586C67.3622 72.9804 67.3768 72.9999 67.3816 73.0064C67.3932 73.022 67.401 73.035 67.403 73.0382C67.4085 73.0474 67.4125 73.0548 67.4133 73.0563C67.4159 73.0611 67.4178 73.0649 67.4181 73.0655C67.4187 73.0667 67.4192 73.0677 67.4194 73.068C67.4196 73.0684 67.4197 73.0687 67.4197 73.0687C67.4197 73.0687 67.4196 73.0685 67.4193 73.0678C67.4189 73.0671 67.4185 73.0663 67.418 73.0652L66.679 73.4242ZM64.8889 71.0299C65.9045 71.841 66.6221 73.307 66.679 73.4242L67.418 73.0652C67.3661 72.9583 66.58 71.3291 65.4015 70.388L64.8889 71.0299ZM60.3381 69.4614C61.9828 69.4614 63.6434 70.0357 64.8889 71.03L65.4015 70.3879C64.0062 69.2741 62.1637 68.6398 60.3381 68.6398V69.4614ZM54.8468 73.25C55.6416 70.9914 57.8438 69.4614 60.3381 69.4614V68.6398C57.5107 68.6398 54.9874 70.3754 54.0719 72.9773L54.8468 73.25ZM64.8843 88.171C60.9111 85.661 58.0067 82.9943 56.2969 80.4133C54.5877 77.8335 54.0964 75.3823 54.8468 73.25L54.0719 72.9773C53.2074 75.4336 53.816 78.1561 55.612 80.8671C57.4073 83.577 60.4132 86.3182 64.4455 88.8655L64.8843 88.171ZM68.0243 90.0005C68.0243 90.0005 68.0242 90.0005 68.0238 90.0002C68.0235 90 68.023 89.9998 68.0224 89.9994C68.0211 89.9988 68.0194 89.9978 68.0172 89.9966C68.0128 89.9941 68.0066 89.9907 67.9985 89.9862C67.9824 89.9772 67.9592 89.9643 67.9296 89.9477C67.8703 89.9146 67.7854 89.8671 67.6806 89.8081C67.4709 89.6902 67.1817 89.5268 66.8585 89.3418C66.2103 88.9709 65.4321 88.5171 64.8843 88.171L64.4454 88.8655C65.5691 89.5757 67.6082 90.7092 67.6261 90.7191L68.0243 90.0005ZM68.0943 90.0032C68.0611 90.0032 68.0359 89.9995 68.0203 89.996C68.0126 89.9942 68.0085 89.9928 68.008 89.9926C68.0069 89.9922 68.013 89.9943 68.0244 90.0006L67.626 90.7191C67.7489 90.7872 67.9175 90.8247 68.0943 90.8247V90.0032ZM68.1653 90C68.1761 89.994 68.1818 89.9922 68.1805 89.9926C68.1799 89.9928 68.1758 89.9942 68.1681 89.996C68.1525 89.9995 68.1274 90.0032 68.0943 90.0032V90.8247C68.2718 90.8247 68.4393 90.787 68.5615 90.7197L68.1653 90Z" fill="#E10505"/>
</svg>
